<svg width="24" height="22" viewBox="0 0 24 22" fill="none" xmlns="http://www.w3.org/2000/svg">
<path d="M12 21.6648C11.6583 21.6648 11.3289 21.541 11.0722 21.3161C10.1026 20.4683 9.16789 19.6717 8.34318 18.9689L8.33897 18.9652C5.92107 16.9048 3.83312 15.1253 2.38037 13.3725C0.756407 11.4129 0 9.55491 0 7.52519C0 5.55315 0.676207 3.73382 1.90393 2.4021C3.1463 1.05462 4.851 0.3125 6.70458 0.3125C8.08995 0.3125 9.35869 0.750487 10.4754 1.61419C11.039 2.05017 11.5499 2.58374 12 3.20611C12.4502 2.58374 12.9609 2.05017 13.5247 1.61419C14.6415 0.750487 15.9102 0.3125 17.2956 0.3125C19.149 0.3125 20.8538 1.05462 22.0962 2.4021C23.3239 3.73382 24 5.55315 24 7.52519C24 9.55491 23.2437 11.4129 21.6198 13.3723C20.167 15.1253 18.0793 16.9046 15.6617 18.9649C14.8355 19.6687 13.8993 20.4667 12.9276 21.3165C12.6711 21.541 12.3415 21.6648 12 21.6648ZM6.70458 1.71838C5.24834 1.71838 3.91058 2.29956 2.93737 3.35497C1.9497 4.42632 1.4057 5.90728 1.4057 7.52519C1.4057 9.23228 2.04016 10.759 3.4627 12.4754C4.83764 14.1346 6.88274 15.8773 9.25065 17.8954L9.25505 17.899C10.0829 18.6045 11.0213 19.4043 11.998 20.2583C12.9805 19.4027 13.9204 18.6016 14.7499 17.895C17.1176 15.877 19.1625 14.1346 20.5374 12.4754C21.9598 10.759 22.5943 9.23228 22.5943 7.52519C22.5943 5.90728 22.0503 4.42632 21.0626 3.35497C20.0896 2.29956 18.7516 1.71838 17.2956 1.71838C16.2288 1.71838 15.2494 2.05749 14.3846 2.72619C13.6139 3.32238 13.077 4.07604 12.7622 4.60338C12.6004 4.87456 12.3155 5.03643 12 5.03643C11.6845 5.03643 11.3996 4.87456 11.2377 4.60338C10.9231 4.07604 10.3863 3.32238 9.6154 2.72619C8.75059 2.05749 7.77116 1.71838 6.70458 1.71838Z" fill="#24252D"/>
</svg>
