<svg width="153" height="32" viewBox="0 0 153 32" fill="none" xmlns="http://www.w3.org/2000/svg">
<path d="M41.52 21.416V16.552H36.656V18.68H39.136V20.28C38.512 20.728 37.712 20.952 36.816 20.952C34.832 20.952 33.424 19.448 33.424 17.4V17.368C33.424 15.464 34.848 13.88 36.64 13.88C37.936 13.88 38.704 14.296 39.568 15.016L41.12 13.144C39.952 12.152 38.736 11.608 36.72 11.608C33.328 11.608 30.848 14.216 30.848 17.4V17.432C30.848 20.744 33.248 23.192 36.736 23.192C38.784 23.192 40.368 22.392 41.52 21.416ZM48.8029 16.808V14.264C47.3629 14.2 46.5629 14.968 46.0669 16.152V14.424H43.6349V23H46.0669V19.832C46.0669 17.784 47.0589 16.808 48.6749 16.808H48.8029ZM57.2921 23V18.024C57.2921 15.704 56.1241 14.328 53.4681 14.328C52.0121 14.328 51.0841 14.6 50.1401 15.016L50.7481 16.872C51.5321 16.584 52.1881 16.408 53.1161 16.408C54.3321 16.408 54.9561 16.968 54.9561 17.976V18.12C54.3481 17.912 53.7241 17.768 52.8601 17.768C50.8281 17.768 49.4041 18.632 49.4041 20.504V20.536C49.4041 22.232 50.7321 23.16 52.3481 23.16C53.5321 23.16 54.3481 22.728 54.9401 22.072V23H57.2921ZM54.9881 19.976C54.9881 20.856 54.2201 21.48 53.0841 21.48C52.3001 21.48 51.7561 21.096 51.7561 20.44V20.408C51.7561 19.64 52.3961 19.224 53.4361 19.224C54.0281 19.224 54.5721 19.352 54.9881 19.544V19.976ZM68.3929 18.728V18.696C68.3929 15.832 66.4889 14.264 64.4889 14.264C63.2249 14.264 62.4089 14.856 61.8169 15.656V14.424H59.3849V25.56H61.8169V21.88C62.3929 22.568 63.1929 23.16 64.4889 23.16C66.5209 23.16 68.3929 21.592 68.3929 18.728ZM65.9609 18.728C65.9609 20.168 65.0009 21.096 63.8649 21.096C62.7289 21.096 61.7849 20.152 61.7849 18.728V18.696C61.7849 17.272 62.7289 16.328 63.8649 16.328C65.0009 16.328 65.9609 17.272 65.9609 18.696V18.728ZM78.0378 23V17.448C78.0378 15.48 76.9658 14.264 75.1258 14.264C73.8938 14.264 73.1738 14.92 72.6138 15.64V11.32H70.1818V23H72.6138V18.216C72.6138 17.064 73.2057 16.472 74.1338 16.472C75.0618 16.472 75.6058 17.064 75.6058 18.216V23H78.0378ZM82.7585 13.48V11.32H80.1985V13.48H82.7585ZM82.6945 23V14.424H80.2625V23H82.6945ZM93.6026 25.56V14.424H91.1706V15.544C90.5946 14.856 89.7946 14.264 88.4986 14.264C86.4666 14.264 84.5946 15.832 84.5946 18.696V18.728C84.5946 21.592 86.4986 23.16 88.4986 23.16C89.7626 23.16 90.5786 22.568 91.1706 21.768V25.56H93.6026ZM91.2026 18.728C91.2026 20.152 90.2586 21.096 89.1226 21.096C87.9866 21.096 87.0266 20.152 87.0266 18.728V18.696C87.0266 17.256 87.9866 16.328 89.1226 16.328C90.2586 16.328 91.2026 17.272 91.2026 18.696V18.728ZM103.568 23V14.424H101.136V19.208C101.136 20.36 100.544 20.952 99.6155 20.952C98.6875 20.952 98.1435 20.36 98.1435 19.208V14.424H95.7115V19.976C95.7115 21.944 96.7835 23.16 98.6235 23.16C99.8555 23.16 100.576 22.504 101.136 21.784V23H103.568ZM113.744 18.952V18.92C113.744 16.488 112.432 14.264 109.568 14.264C107.072 14.264 105.328 16.28 105.328 18.728V18.76C105.328 21.384 107.232 23.192 109.808 23.192C111.36 23.192 112.512 22.584 113.312 21.592L111.92 20.36C111.248 20.984 110.656 21.24 109.84 21.24C108.752 21.24 107.984 20.664 107.744 19.56H113.712C113.728 19.336 113.744 19.192 113.744 18.952ZM111.376 18.04H107.712C107.904 16.936 108.56 16.216 109.568 16.216C110.592 16.216 111.232 16.952 111.376 18.04ZM130.562 23V11.8H128.13V18.696L122.882 11.8H120.61V23H123.042V15.88L128.466 23H130.562ZM141.778 14.04V11.8H133.25V23H135.714V18.664H141.058V16.424H135.714V14.04H141.778ZM152.23 14.072V11.8H142.95V14.072H146.358V23H148.822V14.072H152.23Z" fill="white"/>
<path d="M20.4024 13.218V7.746H14.9304V10.14H17.7204V11.94C17.0124 12.444 16.1424 12.696 15.1104 12.696C14.5464 12.696 14.0304 12.6 13.5624 12.408C13.1064 12.204 12.7044 11.922 12.3564 11.562C12.0204 11.202 11.7564 10.782 11.5644 10.302C11.3844 9.81 11.2944 9.276 11.2944 8.7V8.664C11.2944 8.124 11.3844 7.62 11.5644 7.152C11.7564 6.672 12.0144 6.258 12.3384 5.91C12.6744 5.55 13.0584 5.268 13.4904 5.064C13.9344 4.848 14.4084 4.74 14.9124 4.74C15.2724 4.74 15.6024 4.77 15.9024 4.83C16.2024 4.89 16.4784 4.974 16.7304 5.082C16.9944 5.19 17.2464 5.322 17.4864 5.478C17.7264 5.634 17.9664 5.814 18.2064 6.018L19.9524 3.912C19.6284 3.636 19.2924 3.39 18.9444 3.174C18.5964 2.958 18.2244 2.778 17.8284 2.634C17.4324 2.49 17.0004 2.382 16.5324 2.31C16.0764 2.226 15.5664 2.184 15.0024 2.184C14.0424 2.184 13.1604 2.358 12.3564 2.706C11.5524 3.042 10.8564 3.51 10.2684 4.11C9.68038 4.698 9.21838 5.388 8.88238 6.18C8.55838 6.96 8.39638 7.8 8.39638 8.7V8.736C8.39638 9.672 8.55838 10.536 8.88238 11.328C9.20638 12.12 9.65638 12.804 10.2324 13.38C10.8204 13.956 11.5164 14.406 12.3204 14.73C13.1364 15.054 14.0364 15.216 15.0204 15.216C16.1724 15.216 17.1924 15.024 18.0804 14.64C18.9804 14.244 19.7544 13.77 20.4024 13.218ZM11.0864 25V18H9.56637V22.31L6.28637 18H4.86637V25H6.38637V20.55L9.77637 25H11.0864ZM18.0968 19.4V18H12.7668V25H14.3068V22.29H17.6468V20.89H14.3068V19.4H18.0968ZM24.6293 19.42V18H18.8293V19.42H20.9593V25H22.4993V19.42H24.6293Z" fill="#DA18A3"/>
</svg>
