<svg width="32" height="32" viewBox="0 0 32 32" fill="none" xmlns="http://www.w3.org/2000/svg">
<path d="M20.4024 16.218V10.746H14.9304V13.14H17.7204V14.94C17.0184 15.444 16.1184 15.696 15.1104 15.696C12.8784 15.696 11.2944 14.004 11.2944 11.7V11.664C11.2944 9.522 12.8964 7.74 14.9124 7.74C16.3704 7.74 17.2344 8.208 18.2064 9.018L19.9524 6.912C18.6384 5.796 17.2704 5.184 15.0024 5.184C11.1864 5.184 8.39638 8.118 8.39638 11.7V11.736C8.39638 15.462 11.0964 18.216 15.0204 18.216C17.3244 18.216 19.1064 17.316 20.4024 16.218ZM11.0864 29V22H9.56637V26.31L6.28637 22H4.86637V29H6.38637V24.55L9.77637 29H11.0864ZM18.0968 23.4V22H12.7668V29H14.3068V26.29H17.6468V24.89H14.3068V23.4H18.0968ZM24.6293 23.42V22H18.8293V23.42H20.9593V29H22.4993V23.42H24.6293Z" fill="#DA18A3"/>
</svg>
