<svg width="23" height="25" viewBox="0 0 23 25" fill="none" xmlns="http://www.w3.org/2000/svg">
<path d="M2.72913 22.0792H17.5823L16.8729 19.7823L18.5698 21.2385L20.125 22.6323L22.9583 25V2.57812C22.8875 1.18437 21.6875 0 20.2 0L2.73433 0.003125C1.24788 0.003125 0.041626 1.18958 0.041626 2.58333V19.5C0.041626 20.9698 1.24579 22.0792 2.72913 22.0792ZM13.7166 5.91979L13.6823 5.93229L13.6948 5.91979H13.7166ZM5.76767 7.24167C7.67704 5.85208 9.44684 5.91875 9.44684 5.91875L9.58955 6.05937C7.25309 6.61667 6.19371 7.66042 6.19371 7.66042C6.19371 7.66042 6.47704 7.52187 6.97184 7.31042C10.1187 6.07292 13.5552 6.1625 16.7364 7.72917C16.7364 7.72917 15.675 6.75312 13.4823 6.12812L13.676 5.9375C13.9791 5.93854 15.5833 5.99479 17.3 7.25C17.3 7.25 19.2208 10.5312 19.2208 14.5625C19.1573 14.4854 18.0291 16.2979 15.126 16.3604C15.126 16.3604 14.6343 15.8042 14.2843 15.3187C15.9823 14.8313 16.6177 13.8562 16.6177 13.8562C16.0604 14.2073 15.552 14.4156 15.1395 14.624C14.5052 14.9031 13.8698 15.0406 13.2354 15.1812C10.2312 15.6687 8.54475 14.8531 6.951 14.2062L6.40621 13.9292C6.40621 13.9292 7.04059 14.9042 8.67079 15.3917C8.24267 15.8802 7.81871 16.4354 7.81871 16.4354C4.91663 16.3667 3.85829 14.5542 3.85829 14.5542C3.85829 10.5167 5.76767 7.24167 5.76767 7.24167Z" fill="white"/>
</svg>
